<svg width="18" height="18" viewBox="0 0 18 18" fill="none" xmlns="http://www.w3.org/2000/svg">
<path fill-rule="evenodd" clip-rule="evenodd" d="M8.99998 0C13.9706 0 18 4.02941 18 8.99998C18 13.9705 13.9706 18 8.99998 18C4.02945 18 0 13.9705 0 8.99998C0 4.02941 4.02945 0 8.99998 0ZM9.90195 8.09999H8.10198V13.5H9.90195V8.09999ZM9.00913 4.27498C8.35295 4.27498 7.87695 4.74833 7.87695 5.38751C7.87695 6.05255 8.34042 6.52501 9.00913 6.52501C9.65186 6.52501 10.127 6.05251 10.127 5.4C10.127 4.74837 9.65186 4.27498 9.00913 4.27498Z" fill="white"/>
</svg>
