<svg width="23" height="26" viewBox="0 0 23 26" fill="none" xmlns="http://www.w3.org/2000/svg">
<path d="M21.7235 5.2C22.0492 5.20037 22.3625 5.32724 22.5993 5.5547C22.8362 5.78216 22.9787 6.09304 22.9978 6.42381C23.0169 6.75459 22.9111 7.08029 22.702 7.33438C22.493 7.58847 22.1964 7.75177 21.873 7.7909L21.7235 7.8H21.62L20.4455 22.1C20.4456 23.0948 20.072 24.052 19.4011 24.7757C18.7302 25.4995 17.8129 25.9351 16.8367 25.9935L16.6117 26H6.38826C4.34612 26 2.67714 24.3763 2.56468 22.425L2.55829 22.2079L1.37875 7.8H1.27652C0.9508 7.79963 0.637511 7.67276 0.400663 7.4453C0.163816 7.21784 0.0212868 6.90696 0.00219809 6.57619C-0.0168906 6.24541 0.0889018 5.91971 0.29796 5.66562C0.507017 5.41153 0.803561 5.24823 1.127 5.2091L1.27652 5.2H21.7235ZM8.94413 10.4C8.6052 10.4 8.28015 10.537 8.04049 10.7808C7.80083 11.0246 7.6662 11.3552 7.6662 11.7V19.5C7.6662 19.8448 7.80083 20.1754 8.04049 20.4192C8.28015 20.663 8.6052 20.8 8.94413 20.8C9.28306 20.8 9.60811 20.663 9.84777 20.4192C10.0874 20.1754 10.2221 19.8448 10.2221 19.5V11.7C10.2221 11.3552 10.0874 11.0246 9.84777 10.7808C9.60811 10.537 9.28306 10.4 8.94413 10.4ZM14.0559 10.4C13.7169 10.4 13.3919 10.537 13.1522 10.7808C12.9126 11.0246 12.7779 11.3552 12.7779 11.7V19.5C12.7779 19.8448 12.9126 20.1754 13.1522 20.4192C13.3919 20.663 13.7169 20.8 14.0559 20.8C14.3948 20.8 14.7198 20.663 14.9595 20.4192C15.1992 20.1754 15.3338 19.8448 15.3338 19.5V11.7C15.3338 11.3552 15.1992 11.0246 14.9595 10.7808C14.7198 10.537 14.3948 10.4 14.0559 10.4ZM14.0559 0C14.7337 0 15.3838 0.273928 15.8631 0.761522C16.3425 1.24912 16.6117 1.91044 16.6117 2.6C16.6114 2.93134 16.4867 3.25004 16.2631 3.49098C16.0395 3.73192 15.7339 3.87691 15.4087 3.89632C15.0835 3.91574 14.7634 3.80812 14.5136 3.59546C14.2638 3.38279 14.1033 3.08112 14.0648 2.7521L14.0559 2.6H8.94413L8.93518 2.7521C8.89671 3.08112 8.73619 3.38279 8.48642 3.59546C8.23664 3.80812 7.91646 3.91574 7.5913 3.89632C7.26614 3.87691 6.96054 3.73192 6.73694 3.49098C6.51334 3.25004 6.38862 2.93134 6.38826 2.6C6.38806 1.94405 6.63159 1.31226 7.07003 0.831288C7.50848 0.350312 8.10944 0.0556963 8.75244 0.00650015L8.94413 0H14.0559Z" fill="white"/>
</svg>
