<svg width="32" height="32" viewBox="0 0 32 32" fill="none" xmlns="http://www.w3.org/2000/svg">
<path d="M19.2161 0C18.5239 0 17.9768 0.546989 17.9768 1.23918C17.9768 1.93137 18.5239 2.47851 19.2161 2.47851C19.9083 2.47851 20.4554 1.93137 20.4554 1.23918C20.4554 0.546989 19.9083 0 19.2161 0ZM18.5601 3.70362V12.8292H11.6078L10.6373 18.6522L15.7172 19.6681L20.7972 18.6522L19.8721 13.1016V3.70354C19.6582 3.7612 19.4377 3.79041 19.2161 3.79043C18.9946 3.79043 18.774 3.76124 18.5601 3.70362ZM13.6908 8.16401L10.8803 11.5171H17.248V8.16401H13.6908ZM1.06577 11.2548V21.4165L0 22.3793L1.65744 24.0917L13.6825 23.6612L13.4628 21.4783L12.3549 20.3336L9.75708 19.8141L9.13436 19.6895L9.44532 17.8236L6.37915 16.6159L2.37784 20.2309V11.2549L1.06577 11.2548ZM10.4012 12.0886L8.697 14.1217L9.9977 14.5097L10.4012 12.0886ZM21.0474 12.1731L21.4368 14.5097L22.7375 14.1217C22.3398 13.6641 22.0956 13.3394 21.0474 12.1731ZM25.0553 16.6159L21.9892 17.8236L22.3001 19.6895L19.0796 20.3336L17.9716 21.4783L17.752 23.6612L29.7771 24.0917L31.4345 22.3793L25.0553 16.6159ZM5.68448 18.707L9.18334 22.2059L8.25571 23.1335L4.75685 19.6347L5.68448 18.707ZM25.75 18.707L26.6777 19.6347L23.1788 23.1335L22.2512 22.2059L25.75 18.707ZM8.22269 25.1303L6.74128 25.1591L4.92523 28.7914L4.05438 28.5011L1.7218 30.8337L5.22067 32L7.55324 29.6674L6.18249 29.2105L8.22269 25.1303ZM23.2318 25.1702L25.252 29.2106L23.8813 29.6674L26.2138 32L29.7127 30.8337L27.3801 28.5011L26.5093 28.7914L24.7254 25.2237L23.2318 25.1702Z" fill="white"/>
</svg>
