<svg width="19" height="19" viewBox="0 0 19 19" fill="none" xmlns="http://www.w3.org/2000/svg">
<path d="M0 4.07143C0 2.99162 0.428953 1.95603 1.19249 1.19249C1.95603 0.428953 2.99162 0 4.07143 0H14.9286C16.0084 0 17.044 0.428953 17.8075 1.19249C18.571 1.95603 19 2.99162 19 4.07143V12.8929H18.0364L16.0984 9.5H17.6429V4.07143C17.6429 3.35156 17.3569 2.66117 16.8479 2.15214C16.3388 1.64311 15.6484 1.35714 14.9286 1.35714H4.07143C3.35156 1.35714 2.66117 1.64311 2.15214 2.15214C1.64311 2.66117 1.35714 3.35156 1.35714 4.07143V9.5H2.90157L0.963571 12.8929H0V4.07143ZM0 14.9286V14.25H5.88593L4.77714 18.1314L4.51657 19H4.07143C2.99162 19 1.95603 18.571 1.19249 17.8075C0.428953 17.044 0 16.0084 0 14.9286ZM6.08 18.5074L7.29736 14.25H11.7026L12.9173 18.5033L13.053 19H5.93343L6.07864 18.5169L6.08 18.5074ZM7.68686 12.8929H11.3159L10.3469 9.5H8.6545L7.68686 12.8929ZM14.2256 18.1355L13.1154 14.25H19V14.9286C19 16.0084 18.571 17.044 17.8075 17.8075C17.044 18.571 16.0084 19 14.9286 19H14.4604L14.2256 18.1423V18.1355ZM12.7259 12.8929H16.473L14.535 9.5H11.7569L12.7259 12.8929ZM2.527 12.8929H6.27271L7.24307 9.5H4.465L2.527 12.8929Z" fill="white"/>
</svg>
